<svg xmlns="http://www.w3.org/2000/svg" xmlns:xlink="http://www.w3.org/1999/xlink" version="1.1"
	id="Calque_1" x="0px" y="0px" viewBox="0 0 440 177" style="enable-background:new 0 0 440 177;"
	xml:space="preserve">
<style type="text/css">
	.st0{fill:#000000;}
	.st1{fill:#5542E8;}
</style>
<g id="Calque_1_00000106146820478287158330000018286691290300233630_">
	<g>
		<g>
			<g>
				<path class="st0" d="M109.3,105.3c7.5,0,13.7,5.8,13.7,14.2H94.3C94.8,111.4,100.9,105.3,109.3,105.3 M109.7,149.5      c-8.7,0-13.1-4.2-16-12.2l-12.6-5.5h12.4l0,0h48.8l0.3-4.6c0-27.7-18.5-36.5-33.8-36.5c-21.3-0.1-34.3,15.8-34.3,37.3      c0,20.6,12.5,37.1,35.7,37.1c17.3,0,28.7-10,31.3-25h-18.2C121.4,147.8,114.8,149.5,109.7,149.5" fill="#000000"/>
			</g>
			<polygon class="st0" points="180.1,114.8 165.7,92.7 143.3,92.7 169.1,127.3 142.3,163.3 164.4,163.3 177.6,144.3 175.1,131.6      198.9,163.3 218.9,163.3 191.6,127.5 216.9,92.9 194.6,92.7    " fill="#000000"/>
			<path class="st0" d="M235.8,87.6l12.1,5.1l-24.4,0.2v15.7h12.2v54.7H255v-54.7h16.9V92.8H255v-5.6c0-7.4,2.8-9.7,10.5-9.5     l6.7,0.1V61.9l-5.1-0.3C247.4,60.2,235.8,68.4,235.8,87.6" fill="#000000"/>
			<path class="st0" d="M311.2,148.1c-12.1,0-17.5-10.2-17.5-19.9c0-10,5.1-20.8,17.5-20.8c12.2,0,17.5,10.8,17.5,20.8     C328.7,137.7,323.6,148.1,311.2,148.1 M311,90.3c-21.3,0-36.7,16.2-36.7,37.4c0,20.9,14.8,37.5,36.8,37.5s36.7-16.6,36.7-37.5     C347.9,106.6,332.9,90.3,311,90.3" fill="#000000"/>
			<polygon class="st0" points="12.6,67.9 12.6,163.3 69.7,163.3 69.7,145.2 32.6,145.2 32.6,67.9    " fill="#000000"/>
		</g>
		<path class="st1" d="M364.2,58.5c10.2,0,17.5,0,27.7,0l17,9l-34.5-34.3l21.2-21.3l37.9,37.6l0,0l0,0l0,0l-21.2,21.3l0,0L392,90.6    h-27.6L364.2,58.5z" fill="#000000"/>
	</g>
</g>
<g id="Calque_2_00000144338915105489372040000016832094404657874575_">
</g>
</svg>